<?xml version="1.0" encoding="UTF-8"?>
<svg width="96px" height="100px" viewBox="0 0 96 100" version="1.1" xmlns="http://www.w3.org/2000/svg" xmlns:xlink="http://www.w3.org/1999/xlink">
  <path fill="#e23c52" d="M89.3555556,35.6868687 L73.9515152,22.7272727 L73.9515152,10.7575758 L89.3555556,23.7171717 L89.3555556,35.6868687 L89.3555556,35.6868687 Z M89.3555556,57.6868687 L62.3555556,80.5050505 C58.5575758,76.3939394 53.2444444,74.0707071 47.6181818,74.0707071 C42.1232323,74.0707071 36.9515152,76.2828283 33.1737374,80.2020202 L6.6989899,57.9292929 L6.6989899,43.9393939 L25.2141414,28.2929293 L46.0020202,44.9393939 C47.1535354,45.8686869 48.789899,45.8686869 49.9515152,44.9393939 L70.7393939,28.2828283 L89.3555556,43.9494949 L89.3555556,57.6868687 L89.3555556,57.6868687 Z M47.9717172,92.6565657 L38.0222222,84.2828283 C40.5777778,81.7878788 44.0020202,80.3838384 47.6181818,80.3838384 C51.3858586,80.3838384 54.9414141,81.9090909 57.5171717,84.5959596 L47.9717172,92.6565657 L47.9717172,92.6565657 Z M6.6989899,23.4747475 L22.0020202,10.7373737 L22.0020202,22.7272727 L6.6989899,35.6666667 L6.6989899,23.4747475 L6.6989899,23.4747475 Z M28.3151515,7.16161616 L44.810101,7.13131313 L44.810101,35.8888889 L28.3151515,22.6767677 L28.3151515,7.16161616 L28.3151515,7.16161616 Z M51.1333333,7.13131313 L67.6282828,7.13131313 L67.6282828,22.6767677 L51.1333333,35.8888889 L51.1333333,7.13131313 L51.1333333,7.13131313 Z M95.4262626,21.020202 C95.3959596,20.9393939 95.3555556,20.8484848 95.3050505,20.7777778 C95.2646465,20.6868687 95.2141414,20.6060606 95.1535354,20.5252525 C95.0828283,20.4141414 95.0020202,20.3030303 94.9111111,20.2020202 C94.8909091,20.1717172 94.8707071,20.1515152 94.8505051,20.1313131 C94.759596,20.030303 94.6585859,19.9292929 94.5474747,19.8383838 L94.4969697,19.7878788 L72.8505051,1.57575758 L72.820202,1.55555556 C72.6787879,1.43434343 72.5272727,1.33333333 72.3656566,1.24242424 C72.2949495,1.19191919 72.2141414,1.15151515 72.1232323,1.11111111 C72.0323232,1.06060606 71.9313131,1.02020202 71.830303,0.98989899 C71.759596,0.95959596 71.6888889,0.939393939 71.6080808,0.919191919 C71.5272727,0.898989899 71.4363636,0.878787879 71.3454545,0.858585859 C71.2646465,0.848484848 71.1838384,0.828282828 71.1131313,0.828282828 C71.0121212,0.818181818 70.9010101,0.808080808 70.789899,0.808080808 L47.9717172,0.818181818 L25.1535354,0.848484848 C25.0424242,0.848484848 24.9414141,0.858585859 24.830303,0.868686869 C24.7494949,0.868686869 24.6787879,0.878787879 24.6080808,0.898989899 C24.5171717,0.909090909 24.4262626,0.929292929 24.3353535,0.95959596 C24.2545455,0.97979798 24.1737374,1 24.0929293,1.04040404 C23.7393939,1.16161616 23.4161616,1.34343434 23.1333333,1.57575758 L1.54747475,19.5353535 L1.51717172,19.5656566 C1.19393939,19.8282828 0.941414141,20.1515152 0.749494949,20.5050505 C0.698989899,20.5858586 0.658585859,20.6767677 0.628282828,20.7676768 C0.456565657,21.1515152 0.375757576,21.5757576 0.375757576,22 L0.375757576,59.3939394 C0.375757576,60.3333333 0.78989899,61.2121212 1.50707071,61.8181818 L45.9414141,99.2020202 C46.5272727,99.6969697 47.2444444,99.9494949 47.9717172,99.9494949 C48.6989899,99.9494949 49.4262626,99.6969697 50.0121212,99.2020202 L94.5575758,61.5656566 C95.2646465,60.969697 95.6787879,60.0808081 95.6787879,59.1515152 L95.6787879,22.2525253 C95.6787879,21.8282828 95.5979798,21.4141414 95.4262626,21.020202 L95.4262626,21.020202 Z"></path>
</svg>
