<svg id="Layer_1" data-name="Layer 1" xmlns="http://www.w3.org/2000/svg" viewBox="0 0 778 243"><defs><style>.cls-1{fill:#e23d52;}</style></defs><path class="cls-1" d="M262.92,77.09a5.53,5.53,0,0,0-.45-.81,4.19,4.19,0,0,0-.4-.54l-.1-.11a4.64,4.64,0,0,0-.5-.49l-.09-.08L225.7,45l0,0a5.22,5.22,0,0,0-.75-.51,2.18,2.18,0,0,0-.4-.22,2.65,2.65,0,0,0-.49-.2,3,3,0,0,0-.36-.12l-.44-.1c-.13,0-.26-.05-.38-.05s-.35,0-.53,0l-37.62,0-37.62.05a4.71,4.71,0,0,0-.53,0,1.44,1.44,0,0,0-.37.05,2.42,2.42,0,0,0-.45.1,2.07,2.07,0,0,0-.4.13,5,5,0,0,0-1.58.89l-35.59,29.6,0,0a5.18,5.18,0,0,0-1.26,1.55,1.93,1.93,0,0,0-.2.44,4.86,4.86,0,0,0-.42,2v61.65a5.17,5.17,0,0,0,1.87,4L181.33,206a5.19,5.19,0,0,0,6.71,0l73.44-62.05a5.21,5.21,0,0,0,1.85-4V79.12A5.08,5.08,0,0,0,262.92,77.09Zm-73-22.9h27.2V79.82l-27.2,21.79Zm-37.62.05,27.2-.05v47.42l-27.2-21.79Zm-35.63,26.9,25.22-21V79.91l-25.22,21.33Zm68,114.06-16.4-13.81a22.66,22.66,0,0,1,32.14.52Zm68.23-57.66-44.52,37.62a33.11,33.11,0,0,0-48.11-.5l-43.64-36.72V114.88l30.52-25.8,34.27,27.45a5.19,5.19,0,0,0,6.51,0l34.28-27.46,30.69,25.83Zm0-36.27-25.4-21.36V60.17l25.4,21.37Z"/><path class="cls-1" d="M341.57,46.08a1.86,1.86,0,0,0-1.38-.56H295.66a1.93,1.93,0,0,0-1.93,1.93v8.33a1.84,1.84,0,0,0,.57,1.38,1.91,1.91,0,0,0,1.38.57h15.63v57a1.92,1.92,0,0,0,.57,1.31,1.72,1.72,0,0,0,1.36.62h9.39a1.78,1.78,0,0,0,1.31-.62,1.83,1.83,0,0,0,.6-1.31v-57h15.65a1.95,1.95,0,0,0,1.95-1.95V47.45A1.86,1.86,0,0,0,341.57,46.08Z"/><path class="cls-1" d="M414.32,114.06,383,45.61a1.73,1.73,0,0,0-1.73-1.11h-1a1.74,1.74,0,0,0-1.73,1.11l-31.63,68.45a1.64,1.64,0,0,0,.06,1.82,1.87,1.87,0,0,0,1.67.82h8.84a3,3,0,0,0,2.95-2.1l5-11.22h30.39l5,11.22a3.18,3.18,0,0,0,2.95,2.1h8.84a1.94,1.94,0,0,0,1.7-.82A1.68,1.68,0,0,0,414.32,114.06ZM370.4,92.4l10-22.38h.31L390.84,92.4Z"/><path class="cls-1" d="M443.51,46.12a1.83,1.83,0,0,0-1.31-.6h-9.39a1.82,1.82,0,0,0-1.36.6,2,2,0,0,0-.55,1.33v67.32a1.89,1.89,0,0,0,.55,1.31,1.77,1.77,0,0,0,1.36.62h9.39a2.15,2.15,0,0,0,1.93-1.93V47.45A1.85,1.85,0,0,0,443.51,46.12Z"/><path class="cls-1" d="M510.57,105.06a1.87,1.87,0,0,0-1.36-.57H483.26v-57a2,2,0,0,0-.54-1.33,1.85,1.85,0,0,0-1.39-.6H472a1.9,1.9,0,0,0-1.93,1.93v67.32a1.92,1.92,0,0,0,.55,1.37,1.87,1.87,0,0,0,1.38.56h37.23a1.86,1.86,0,0,0,1.36-.56,1.9,1.9,0,0,0,.57-1.37v-8.34A1.85,1.85,0,0,0,510.57,105.06Z"/><path class="cls-1" d="M585.36,55.23a36.64,36.64,0,0,0-51.81,0,35.51,35.51,0,0,0-10.63,26,36.56,36.56,0,1,0,73.12,0A35.44,35.44,0,0,0,585.36,55.23ZM576,97.63a23.31,23.31,0,0,1-39.81-16.42A22.7,22.7,0,0,1,543,64.63a23.07,23.07,0,0,1,32.91,0,23.24,23.24,0,0,1,.05,33Z"/><path class="cls-1" d="M654.81,88a25.26,25.26,0,0,0,10.93-8.22,20.05,20.05,0,0,0,4.12-12.41,21,21,0,0,0-6.5-15.46,21.54,21.54,0,0,0-15.67-6.4H618.61a1.93,1.93,0,0,0-1.93,1.93v67.32a1.85,1.85,0,0,0,.56,1.37,1.82,1.82,0,0,0,1.37.56H628a1.78,1.78,0,0,0,1.38-.62,1.89,1.89,0,0,0,.55-1.31V88.94h11.29l13.52,26.85a1.77,1.77,0,0,0,1.64.91H667a1.9,1.9,0,0,0,1.76-1,1.82,1.82,0,0,0,0-2Zm-1.17-13.1a9.62,9.62,0,0,1-7.06,3H630V57.73h16.58a9.86,9.86,0,0,1,7.07,2.89,9.4,9.4,0,0,1,3,7A10.13,10.13,0,0,1,653.64,74.91Z"/><path class="cls-1" d="M335.32,172.18c4.5-2.59,9.39-8,9.39-15.33,0-10-7.95-17.63-19.64-17.63h-21a1.82,1.82,0,0,0-1.82,1.82v63.4a1.82,1.82,0,0,0,1.83,1.82h21.84c12.35,0,20.88-7.76,20.88-18.47C346.82,179,340.39,174.27,335.32,172.18Zm-25.87-26.35h15.62c7.38,0,11.49,4.59,11.49,11.5,0,6.7-4.11,12-11.49,12H309.45Zm17.26,54H309.27V175.91h15.8c7.47,0,13.7,5,13.7,11.77A11.8,11.8,0,0,1,326.71,199.85Z"/><path class="cls-1" d="M395.46,179.17c8.35-3.35,14.18-10.73,14.18-19.55a20.59,20.59,0,0,0-20.88-20.4H364a1.83,1.83,0,0,0-1.82,1.82v63.4a1.81,1.81,0,0,0,1.82,1.82h3.74a1.88,1.88,0,0,0,1.82-1.82V180h18.29l12.74,25.38a1.65,1.65,0,0,0,1.53.85H407a1.81,1.81,0,0,0,1.64-2.77Zm-25.76-5.46v-27.5h18.59c7.38,0,13.79,6.24,13.79,13.5a14,14,0,0,1-13.79,14Z"/><path class="cls-1" d="M478.51,203.79l-28.92-64.46a1.71,1.71,0,0,0-1.64-1.06H447a1.71,1.71,0,0,0-1.64,1.06l-29.12,64.46a1.69,1.69,0,0,0,1.64,2.47h3.83a1.73,1.73,0,0,0,1.62-1l7-15.8h34l7.09,15.8a1.75,1.75,0,0,0,1.64,1h3.82A1.68,1.68,0,0,0,478.51,203.79ZM433,183.47l14-31.41h.76c4.68,10.44,9.29,21,14,31.41Z"/><path class="cls-1" d="M541.73,139.22h-3.36a1.83,1.83,0,0,0-1.82,1.82v51.05h-.18l-43.2-53.82h-2.4A1.81,1.81,0,0,0,489,140v64.46a1.89,1.89,0,0,0,1.83,1.82h3.35a1.81,1.81,0,0,0,1.82-1.82V152.35H496l44,54.88h1.73a1.81,1.81,0,0,0,1.83-1.73V141A1.89,1.89,0,0,0,541.73,139.22Z"/><path class="cls-1" d="M586.27,139.22H564.81A1.8,1.8,0,0,0,563.1,141v63.4a1.79,1.79,0,0,0,1.71,1.82h21.46a33.52,33.52,0,1,0,0-67Zm-1.53,60.45H570.37V145.74h14.37c15.71,0,27.09,11.21,27.09,26.91S600.44,199.67,584.74,199.67Z"/><path class="cls-1" d="M650.53,168.73c-8-3.35-12.92-7.1-12.92-13.51,0-4,3.06-10.53,13.21-10.53,5.85,0,11.88,4,12.55,4.4,1.53.86,2.48.48,3.36-.85.38-.58.76-1.26,1.14-1.82,1.15-1.83,0-3-.58-3.26a31.34,31.34,0,0,0-16.38-4.89c-15.23,0-20.39,10.53-20.39,17,0,10.92,6.33,15.22,16.86,19.83,11,4.59,16.76,8.52,16.76,15.12,0,5.66-5.09,10.55-12.85,10.55-8.52,0-15.5-6.71-16.17-7.29-1.35-1.15-2.41-.38-3.36.86-.47.58-1,1.25-1.44,1.82-1.14,1.82-.18,2.58.59,3.26a31.15,31.15,0,0,0,20.2,7.76c11.21,0,20.68-7.29,20.68-17.23C671.79,178.88,663.46,174,650.53,168.73Z"/></svg>